  <svg xmlns="http://www.w3.org/2000/svg" width={2000} height={1247} {...props}>
    <svg
      xmlns="http://www.w3.org/2000/svg"
      xmlnsXlink="http://www.w3.org/1999/xlink"
      width={2000}
      height={1247}
      data-background-color="#ffffff"
      transform="translate(-1.212 .505)"
      viewBox="0 0 396 247"
      {...props}
    >
      <svg
        width={395.52}
        height={247.2}
        transform="translate(.24 -.1)"
        viewBox="0 0 395.52 247.2"
        {...props}
      >
        <svg {...props} />
        <svg
          width={395.52}
          height={247.2}
          viewBox="0 0 395.52 247.2"
          {...props}
        >
          <svg
            width={244.431}
            height={101.958}
            transform="translate(75.544 72.621)"
            viewBox="0 0 244.431 101.958"
            {...props}
          >
            <svg
              width={244.431}
              height={101.958}
              viewBox="0 0 244.431 101.958"
              {...props}
            >
              <svg
                width={244.431}
                height={101.958}
                viewBox="0 0 244.431 101.958"
                {...props}
              >
                <svg
                  width={244.431}
                  height={101.958}
                  viewBox="0 0 244.431 101.958"
                  {...props}
                >
                  <svg
                    width={244.431}
                    height={73.198}
                    viewBox="0 0 244.431 73.198"
                    {...props}
                  >
                    <svg
                      width={244.431}
                      height={73.198}
                      data-palette-color="#000000"
                      viewBox="2.55 -35.55 158.44 47.45"
                      {...props}
                    >
                      <path
                        d="M16.25-.55q2.5 0 4.43-1.35 1.92-1.35 1.92-4.08 0-2.72-2.07-4.17-2.08-1.45-5.9-2.53-3.83-1.07-5.55-1.87-1.73-.8-3.28-2.1-3.1-2.6-3.1-8.05 0-4.45 3.18-7.65 3.17-3.2 8.67-3.2 2.65 0 5.53.78 2.87.77 3.57.77.7 0 1.25-1h.55l.35 10.1H25q-2.4-4.35-5.02-6.98-2.63-2.62-5.7-2.62-3.08 0-4.78 1.42-1.7 1.43-1.7 3.8 0 2.38 2.03 3.65 2.02 1.28 4.97 2.08 2.95.8 3.88 1.1.92.3 2.3.82 1.37.53 2.25 1.1.87.58 1.85 1.46.97.87 1.52 1.92 1.35 2.4 1.35 5.7 0 5.4-3.37 8.67Q21.2.5 15.7.5q-2.85 0-6.52-.75Q5.5-1 5.1-1 4.4-1 3.75.5h-.7l-.5-11.9h.85q2.2 4.35 5.63 7.6 3.42 3.25 7.22 3.25Zm32.5-12.9q0-5.15-.5-6.93-.5-1.77-1.95-1.77t-2.6 1.87q-1.15 1.88-1.15 5.03v9.15q0 2.15.85 3.65t2.5 1.5q1.65 0 2.25-2.2.6-2.2.6-7.7v-2.6ZM30.6-23.8h11.85v3.95q1.95-4.45 6.9-4.45 4.3 0 6.67 3.1 2.38 3.1 2.38 9.4 0 6.3-2.58 9.3-2.57 3-7.72 3-2.4 0-3.6-.6-1.2-.6-1.95-1.85V11H49v.9H30.5V11h2.75v-33.9H30.6v-.9Zm45.99 1.4q-1.84 0-3.25 2.4-1.39 2.4-1.39 5.7V-.9h3.55V0H59.9v-.9h2.75v-22H59.9v-.9h12.05v4.8q.64-2.55 2.5-3.93 1.85-1.37 4.2-1.37t3.82 1.32q1.48 1.33 1.48 3.75 0 2.43-1.11 3.73-1.09 1.3-3.37 1.3-2.27 0-3.35-1.5-1.07-1.5-.28-4.15h1.81q1.25-2.55-1.06-2.55Zm23.95 12.55v-4.25q0-4.85-.52-7.08-.53-2.22-2.43-2.22-1.1 0-1.77.62-.68.63-.98 2.08-.45 2.25-.45 6.85v3.9q0 5.45.33 6.55.32 1.1.67 1.8.55 1.2 2.15 1.2 1.95 0 2.55-2.25.45-1.6.45-7.2ZM97.44.5q-6.25 0-9.45-3.2-3.2-3.2-3.2-9.18 0-5.97 3.43-9.2 3.42-3.22 9.62-3.22 6.2 0 9.25 2.97 3.05 2.98 3.05 9.08Q110.14.5 97.44.5Zm43.35-1.4V0h-11.4l-.55-3.65q-.8 2-2.37 3.07Q124.89.5 121.79.5q-7.75 0-7.75-8.35V-22.9h-2.8v-.9h12.1v17.15q0 3 .43 3.95.42.95 1.7.95 1.27 0 2.27-1.55t1-4.3v-15.3h-2.3v-.9h11.6V-.9h2.75Zm3.5-6.25V-22.9h-2.75v-.9h2.75v-6.45l9.3-2.3v8.75h6.5v.9h-6.5v16.85q0 2.35.47 3.45.48 1.1 1.98 1.1t2.62-1.5q1.13-1.5 1.48-4.1l.85.1q-.4 3.45-2.2 5.47Q156.99.5 152.84.5t-6.35-1.65q-2.2-1.65-2.2-6Z"
                        className="wordmark-text-0"
                        data-fill-palette-color="primary"
                      />
                    </svg>
                  </svg>
                  <svg
                    width={164.869}
                    height={11.479}
                    transform="translate(0 90.479)"
                    viewBox="0 0 164.869 11.479"
                    {...props}
                  >
                    <svg
                      width={164.869}
                      height={11.479}
                      data-palette-color="#000000"
                      viewBox="3 -39.65 727.11 50.5"
                      {...props}
                    >
                      <path
                        d="M10.9-34.55q6.25 0 9.53 2.77Q23.7-29 23.7-23.6q0 5.75-3.22 8.6-3.23 2.85-9.13 2.85h-2V0H3v-34.55h7.9ZM11-16.9q3.25 0 4.7-1.5 1.45-1.5 1.45-5.15 0-3.3-1.45-4.8t-4.65-1.5h-1.7v12.95H11ZM32.9.75q-2.7 0-4.28-1.68-1.57-1.67-1.57-4.47v-31.65l6.15-.65v32.05q0 .65.3 1.05t.9.4q.35 0 .67-.1.33-.1.43-.1l1.2 4.2q-1.7.95-3.8.95ZM56.65-6.4q0 1.3.35 1.92.35.63 1.15 1.03L56.9.65Q54.84.4 53.62-.45q-1.22-.85-1.82-2.6-2.3 3.8-6.45 3.8-3.3 0-5.25-2.23-1.95-2.22-1.95-5.92 0-4.3 2.67-6.55 2.68-2.25 7.78-2.25h2.05v-1.85q0-2.5-.88-3.53-.87-1.02-2.82-1.02-2.35 0-5.85 1.3l-1.4-4q2-.9 4.15-1.38 2.15-.47 4.1-.47 8.7 0 8.7 8.8V-6.4ZM47-3.7q2.4 0 3.65-3.3v-5.55H49.2q-2.55 0-3.73 1.15-1.17 1.15-1.17 3.55 0 2.05.7 3.1.7 1.05 2 1.05Zm27.79-23.45q2.85 0 4.5 2.05t1.65 5.5V0h-6.15v-18.9q0-1.9-.52-2.73-.53-.82-1.53-.82-2.1 0-4.15 3.95V0h-6.15v-26.45h5.35l.45 3.45q1.35-2.1 2.88-3.13 1.52-1.02 3.67-1.02ZM97.64-5l2.15 3.8Q97.34.75 94.04.75q-3.45 0-5.25-1.98-1.8-1.97-1.8-5.37V-22h-3.1v-4.45h3.1v-5.85l6.15-.75v6.6h5l-.6 4.45h-4.4v15.4q0 2.4 2.05 2.4.65 0 1.15-.18.5-.17 1.3-.62Zm4.7-21.45h6.15V0h-6.15v-26.45Zm3.05-13.2q1.65 0 2.67 1.05 1.03 1.05 1.03 2.7 0 1.6-1.03 2.65-1.02 1.05-2.67 1.05t-2.68-1.05q-1.02-1.05-1.02-2.65 0-1.65 1.02-2.7 1.03-1.05 2.68-1.05Zm21.15 12.5q2.85 0 4.5 2.05t1.65 5.5V0h-6.15v-18.9q0-1.9-.53-2.73-.52-.82-1.52-.82-2.1 0-4.15 3.95V0h-6.15v-26.45h5.35l.45 3.45q1.35-2.1 2.87-3.13 1.53-1.02 3.68-1.02Zm29.64-2.7 1.55 4.75q-1.05.5-2.52.7-1.48.2-3.68.2 2.1 1 3.13 2.67 1.02 1.68 1.02 4.13 0 4-2.45 6.45t-6.65 2.45q-1.25 0-2.55-.4-.9.75-.9 2.05 0 1 .55 1.5t2.05.5h2.8q4 0 6.35 2.07 2.35 2.08 2.35 5.28 0 3.8-2.92 6.08-2.93 2.27-8.33 2.27-5.7 0-7.97-2.1-2.28-2.1-2.28-6.15h5.45q0 2.15 1 3.05 1 .9 3.85.9 2.75 0 3.9-.95t1.15-2.7q0-1.7-.95-2.5t-2.95-.8h-1.9q-3.8 0-5.55-1.35t-1.75-3.7q0-1.35.73-2.58.72-1.22 1.97-2.17-2.05-1.3-3-3.1-.95-1.8-.95-4.4 0-4.35 2.6-6.88 2.6-2.52 7-2.52 3.25 0 5.38-.7 2.12-.7 4.47-2.05ZM146.33-23q-1.75 0-2.65 1.25-.9 1.25-.9 3.95 0 2.55.9 3.92.9 1.38 2.6 1.38 1.75 0 2.6-1.23.85-1.22.85-4.12 0-2.7-.82-3.93-.83-1.22-2.58-1.22Zm35.15 18 2.15 3.8Q181.18.75 177.88.75q-3.45 0-5.25-1.98-1.8-1.97-1.8-5.37V-22h-3.1v-4.45h3.1v-5.85l6.15-.75v6.6h5l-.6 4.45h-4.4v15.4q0 2.4 2.05 2.4.65 0 1.15-.18.5-.17 1.3-.62Zm17.05-22.15q2.85 0 4.5 2.05t1.65 5.5V0h-6.15v-18.9q0-1.9-.53-2.73-.52-.82-1.52-.82-2.1 0-4.15 3.95V0h-6.15v-37l6.15-.65v14.35q1.25-1.95 2.72-2.9 1.48-.95 3.48-.95Zm30.54 13.3q0 .45-.15 2.55h-13.65q.2 4.1 1.43 5.72 1.22 1.63 3.47 1.63 1.55 0 2.8-.53 1.25-.52 2.7-1.67l2.55 3.5q-3.5 3.4-8.4 3.4-5.2 0-7.97-3.6-2.78-3.6-2.78-10.15 0-6.55 2.65-10.35t7.5-3.8q4.65 0 7.25 3.37 2.6 3.38 2.6 9.93Zm-6-1.45v-.35q0-3.75-.9-5.48-.9-1.72-2.9-1.72-1.85 0-2.82 1.67-.98 1.68-1.18 5.88h7.8Zm27.5-11.85q4.7 0 7.95 3.1l-2.35 3.35q-1.4-1-2.65-1.5t-2.55-.5q-1.45 0-2.28.77-.82.78-.82 2.13 0 1.35.92 2.17.93.83 3.73 1.93 3.45 1.35 5.1 3.2 1.65 1.85 1.65 4.95 0 3.85-2.7 6.07-2.7 2.23-6.85 2.23-2.7 0-4.98-.98-2.27-.97-3.97-2.72l3-3.3q2.8 2.45 5.7 2.45 1.65 0 2.6-.87.95-.88.95-2.43 0-1.15-.4-1.87-.4-.73-1.4-1.36-1-.62-3-1.37-3.45-1.35-4.93-3.15-1.47-1.8-1.47-4.6 0-3.35 2.37-5.53 2.38-2.17 6.38-2.17Zm31.4 13.3q0 .45-.15 2.55h-13.65q.2 4.1 1.42 5.72 1.23 1.63 3.48 1.63 1.55 0 2.8-.53 1.25-.52 2.7-1.67l2.55 3.5q-3.5 3.4-8.4 3.4-5.2 0-7.98-3.6-2.77-3.6-2.77-10.15 0-6.55 2.65-10.35t7.5-3.8q4.65 0 7.25 3.37 2.6 3.38 2.6 9.93Zm-6-1.45v-.35q0-3.75-.9-5.48-.9-1.72-2.9-1.72-1.85 0-2.83 1.67-.97 1.68-1.17 5.88h7.8Zm29.14 1.45q0 .45-.15 2.55h-13.65q.2 4.1 1.43 5.72 1.22 1.63 3.47 1.63 1.55 0 2.8-.53 1.25-.52 2.7-1.67l2.55 3.5q-3.5 3.4-8.4 3.4-5.2 0-7.97-3.6-2.78-3.6-2.78-10.15 0-6.55 2.65-10.35t7.5-3.8q4.65 0 7.25 3.37 2.6 3.38 2.6 9.93Zm-6-1.45v-.35q0-3.75-.9-5.48-.9-1.72-2.9-1.72-1.85 0-2.82 1.67-.98 1.68-1.18 5.88h7.8Zm23.25-22.4 6.15.65V0h-5.45l-.3-3.05q-2.35 3.8-6.05 3.8-4.1 0-6.27-3.68-2.18-3.67-2.18-10.27 0-4.2 1.12-7.38 1.13-3.17 3.13-4.87 2-1.7 4.6-1.7 3.2 0 5.25 2.65v-13.2Zm-3.9 33.8q1.15 0 2.08-.8.92-.8 1.82-2.3v-12.85q-1.6-2.7-3.65-2.7-4.05 0-4.05 9.3 0 5.05 1 7.2 1 2.15 2.8 2.15ZM355.21-5l2.15 3.8Q354.91.75 351.61.75q-3.45 0-5.25-1.98-1.8-1.97-1.8-5.37V-22h-3.1v-4.45h3.1v-5.85l6.15-.75v6.6h5l-.6 4.45h-4.4v15.4q0 2.4 2.05 2.4.65 0 1.15-.18.5-.17 1.3-.62Zm14.09-22.15q5 0 7.78 3.5 2.77 3.5 2.77 10.4 0 6.6-2.8 10.3-2.8 3.7-7.75 3.7t-7.75-3.63q-2.8-3.62-2.8-10.37 0-6.7 2.8-10.3 2.8-3.6 7.75-3.6Zm0 4.65q-2.15 0-3.15 2.12-1 2.13-1 7.13 0 5.05 1 7.17 1 2.13 3.15 2.13t3.15-2.13q1-2.12 1-7.17t-1-7.15q-1-2.1-3.15-2.1Zm34.65-10.55q-1.4 0-2.08.75-.67.75-.67 2.3v3.55h5.05l-.7 4.45h-4.35V0h-6.15v-22h-3.3v-4.45h3.3v-3.35q0-3.6 2.1-5.75t6-2.15q3.05 0 5.9 1.5l-1.7 4q-1.75-.85-3.4-.85Zm5.1 6.6h6.15V0h-6.15v-26.45Zm3.05-13.2q1.65 0 2.67 1.05 1.03 1.05 1.03 2.7 0 1.6-1.03 2.65-1.02 1.05-2.67 1.05t-2.68-1.05q-1.02-1.05-1.02-2.65 0-1.65 1.02-2.7 1.03-1.05 2.68-1.05Zm21.14 12.5q2.85 0 4.5 2.05t1.65 5.5V0h-6.15v-18.9q0-1.9-.52-2.73-.53-.82-1.53-.82-2.1 0-4.15 3.95V0h-6.15v-26.45h5.35l.45 3.45q1.35-2.1 2.88-3.13 1.52-1.02 3.67-1.02Zm28.6 20.75q0 1.3.35 1.92.35.63 1.15 1.03l-1.25 4.1q-2.05-.25-3.27-1.1-1.23-.85-1.83-2.6-2.3 3.8-6.45 3.8-3.3 0-5.25-2.23-1.95-2.22-1.95-5.92 0-4.3 2.68-6.55 2.67-2.25 7.77-2.25h2.05v-1.85q0-2.5-.87-3.53-.88-1.02-2.83-1.02-2.35 0-5.85 1.3l-1.4-4q2-.9 4.15-1.38 2.15-.47 4.1-.47 8.7 0 8.7 8.8V-6.4Zm-9.65 2.7q2.4 0 3.65-3.3v-5.55h-1.45q-2.55 0-3.72 1.15-1.18 1.15-1.18 3.55 0 2.05.7 3.1.7 1.05 2 1.05Zm27.8-23.45q2.85 0 4.5 2.05t1.65 5.5V0h-6.15v-18.9q0-1.9-.53-2.73-.52-.82-1.52-.82-2.1 0-4.15 3.95V0h-6.15v-26.45h5.35l.45 3.45q1.35-2.1 2.87-3.13 1.53-1.02 3.68-1.02Zm21.2 0q2.15 0 3.9.72 1.75.73 3.35 2.28l-2.65 3.5q-1.1-.9-2.08-1.33-.97-.42-2.12-.42-2.25 0-3.4 2.12-1.15 2.13-1.15 7.18 0 4.9 1.17 6.9 1.18 2 3.38 2 1.1 0 2-.4.9-.4 2.1-1.25l2.75 3.55q-3.2 3.05-7.15 3.05-5.1 0-7.93-3.48-2.82-3.47-2.82-10.27 0-4.4 1.3-7.6 1.3-3.2 3.72-4.88 2.43-1.67 5.63-1.67Zm10.29.7h6.15V0h-6.15v-26.45Zm3.05-13.2q1.65 0 2.68 1.05 1.02 1.05 1.02 2.7 0 1.6-1.02 2.65-1.03 1.05-2.68 1.05-1.65 0-2.67-1.05-1.03-1.05-1.03-2.65 0-1.65 1.03-2.7 1.02-1.05 2.67-1.05Zm25.7 33.25q0 1.3.35 1.92.35.63 1.15 1.03l-1.25 4.1q-2.05-.25-3.27-1.1-1.23-.85-1.83-2.6-2.3 3.8-6.45 3.8-3.3 0-5.25-2.23-1.95-2.22-1.95-5.92 0-4.3 2.68-6.55 2.67-2.25 7.77-2.25h2.05v-1.85q0-2.5-.87-3.53-.88-1.02-2.83-1.02-2.35 0-5.85 1.3l-1.4-4q2-.9 4.15-1.38 2.15-.47 4.1-.47 8.7 0 8.7 8.8V-6.4Zm-9.65 2.7q2.4 0 3.65-3.3v-5.55h-1.45q-2.55 0-3.72 1.15-1.18 1.15-1.18 3.55 0 2.05.7 3.1.7 1.05 2 1.05ZM551.63.75q-2.7 0-4.28-1.68-1.57-1.67-1.57-4.47v-31.65l6.15-.65v32.05q0 .65.3 1.05t.9.4q.35 0 .67-.1.33-.1.43-.1l1.2 4.2q-1.7.95-3.8.95ZM574.82 0h-6.35v-34.55h16.7l-.7 4.75h-9.65v10.55h8.4v4.75h-8.4V0Zm25.3-27.1q1.15 0 2.05.35l-1 5.9q-1-.25-1.85-.25-1.9 0-3 1.65t-1.7 4.9V0h-6.15v-26.45h5.35l.45 4.6q1.85-5.25 5.85-5.25Zm23.75 13.25q0 .45-.15 2.55h-13.65q.2 4.1 1.42 5.72 1.23 1.63 3.48 1.63 1.55 0 2.8-.53 1.25-.52 2.7-1.67l2.55 3.5q-3.5 3.4-8.4 3.4-5.2 0-7.98-3.6-2.77-3.6-2.77-10.15 0-6.55 2.65-10.35t7.5-3.8q4.65 0 7.25 3.37 2.6 3.38 2.6 9.93Zm-6-1.45v-.35q0-3.75-.9-5.48-.9-1.72-2.9-1.72-1.85 0-2.83 1.67-.97 1.68-1.17 5.88h7.8Zm29.14 1.45q0 .45-.15 2.55h-13.65q.2 4.1 1.43 5.72 1.22 1.63 3.47 1.63 1.55 0 2.8-.53 1.25-.52 2.7-1.67l2.55 3.5q-3.5 3.4-8.4 3.4-5.2 0-7.97-3.6-2.78-3.6-2.78-10.15 0-6.55 2.65-10.35t7.5-3.8q4.65 0 7.25 3.37 2.6 3.38 2.6 9.93Zm-6-1.45v-.35q0-3.75-.9-5.48-.9-1.72-2.9-1.72-1.85 0-2.82 1.67-.98 1.68-1.18 5.88h7.8Zm23.25-22.4 6.15.65V0h-5.45l-.3-3.05q-2.35 3.8-6.05 3.8-4.1 0-6.27-3.68-2.18-3.67-2.18-10.27 0-4.2 1.13-7.38 1.12-3.17 3.12-4.87 2-1.7 4.6-1.7 3.2 0 5.25 2.65v-13.2Zm-3.9 33.8q1.15 0 2.08-.8.92-.8 1.82-2.3v-12.85q-1.6-2.7-3.65-2.7-4.05 0-4.05 9.3 0 5.05 1 7.2 1 2.15 2.8 2.15Zm25.15-23.25q5 0 7.77 3.5 2.78 3.5 2.78 10.4 0 6.6-2.8 10.3-2.8 3.7-7.75 3.7t-7.75-3.63q-2.8-3.62-2.8-10.37 0-6.7 2.8-10.3 2.8-3.6 7.75-3.6Zm0 4.65q-2.15 0-3.15 2.12-1 2.13-1 7.13 0 5.05 1 7.17 1 2.13 3.15 2.13t3.15-2.13q1-2.12 1-7.17t-1-7.15q-1-2.1-3.15-2.1Zm38.75-4.65q2.65 0 4.25 2.05t1.6 5.5V0h-6.05v-18.95q0-1.9-.5-2.73-.5-.82-1.45-.82-1.95 0-3.75 3.7V0h-6v-18.95q0-3.55-1.9-3.55-2.05 0-3.8 3.7V0h-6.05v-26.45h5.35l.4 3.4q2.6-4.1 6.25-4.1 1.85 0 3.2 1.15t2.05 3.25q2.65-4.4 6.4-4.4Z"
                        className="slogan-text-1"
                        data-fill-palette-color="secondary"
                      />
                    </svg>
                  </svg>
                </svg>
              </svg>
            </svg>
          </svg>
          <path
            stroke="transparent"
            d="M0 123.6C0 55.338 55.338 0 123.6 0c46.644 0 87.253 25.837 108.297 63.981h-3.786c-20.724-36.25-59.764-60.68-104.511-60.68C57.16 3.301 3.301 57.161 3.301 123.6c0 66.44 53.86 120.299 120.299 120.299 44.746 0 83.787-24.43 104.511-60.68h3.786C210.854 221.362 170.244 247.2 123.6 247.2 55.338 247.2 0 191.862 0 123.6z"
            data-fill-palette-color="tertiary"
          />
        </svg>
      </svg>
    </svg>
  </svg>