<svg xmlns="http://www.w3.org/2000/svg" version="1.1" xmlns:xlink="http://www.w3.org/1999/xlink" xmlns:svgjs="http://svgjs.dev/svgjs" width="2000" height="1247" viewBox="0 0 2000 1247"><g transform="matrix(1,0,0,1,-1.2121212121212466,0.504858299595071)"><svg viewBox="0 0 396 247" data-background-color="#ffffff" preserveAspectRatio="xMidYMid meet" height="1247" width="2000" xmlns="http://www.w3.org/2000/svg" xmlns:xlink="http://www.w3.org/1999/xlink"><g id="tight-bounds" transform="matrix(1,0,0,1,0.2400000000000091,-0.09999999999999432)"><svg viewBox="0 0 395.52 247.2" height="247.2" width="395.52"><g><svg></svg></g><g><svg viewBox="0 0 395.52 247.2" height="247.2" width="395.52"><g transform="matrix(1,0,0,1,75.54432,72.62106658002392)"><svg viewBox="0 0 244.43135999999998 101.95786683995215" height="101.95786683995215" width="244.43135999999998"><g><svg viewBox="0 0 244.43135999999998 101.95786683995215" height="101.95786683995215" width="244.43135999999998"><g><svg viewBox="0 0 244.43135999999998 101.95786683995215" height="101.95786683995215" width="244.43135999999998"><g id="textblocktransform"><svg viewBox="0 0 244.43135999999998 101.95786683995215" height="101.95786683995215" width="244.43135999999998" id="textblock"><g><svg viewBox="0 0 244.43135999999998 73.19828357210476" height="73.19828357210476" width="244.43135999999998"><g transform="matrix(1,0,0,1,0,0)"><svg width="244.43135999999998" viewBox="2.55 -35.55 158.44 47.449999999999996" height="73.19828357210476" data-palette-color="#000000"><path d="M16.25-0.55L16.25-0.55Q18.75-0.55 20.68-1.9 22.6-3.25 22.6-5.98 22.6-8.7 20.53-10.15 18.45-11.6 14.63-12.68 10.8-13.75 9.08-14.55 7.35-15.35 5.8-16.65L5.8-16.65Q2.7-19.25 2.7-24.7L2.7-24.7Q2.7-29.15 5.88-32.35 9.05-35.55 14.55-35.55L14.55-35.55Q17.2-35.55 20.08-34.77 22.95-34 23.65-34 24.35-34 24.9-35L24.9-35 25.45-35 25.8-24.9 25-24.9Q22.6-29.25 19.98-31.88 17.35-34.5 14.28-34.5 11.2-34.5 9.5-33.08 7.8-31.65 7.8-29.28 7.8-26.9 9.83-25.63 11.85-24.35 14.8-23.55 17.75-22.75 18.68-22.45 19.6-22.15 20.98-21.63 22.35-21.1 23.23-20.53 24.1-19.95 25.08-19.07 26.05-18.2 26.6-17.15L26.6-17.15Q27.95-14.75 27.95-11.45L27.95-11.45Q27.95-6.05 24.58-2.78 21.2 0.5 15.7 0.5L15.7 0.5Q12.85 0.5 9.18-0.25 5.5-1 5.1-1L5.1-1Q4.4-1 3.75 0.5L3.75 0.5 3.05 0.5 2.55-11.4 3.4-11.4Q5.6-7.05 9.03-3.8 12.45-0.55 16.25-0.55ZM48.75-13.45Q48.75-18.6 48.25-20.38 47.75-22.15 46.3-22.15 44.85-22.15 43.7-20.28 42.55-18.4 42.55-15.25L42.55-15.25 42.55-6.1Q42.55-3.95 43.4-2.45 44.25-0.95 45.9-0.95 47.55-0.95 48.15-3.15 48.75-5.35 48.75-10.85L48.75-10.85 48.75-13.45ZM30.6-23.8L42.45-23.8 42.45-19.85Q44.4-24.3 49.35-24.3L49.35-24.3Q53.65-24.3 56.02-21.2 58.4-18.1 58.4-11.8 58.4-5.5 55.82-2.5 53.25 0.5 48.1 0.5L48.1 0.5Q45.7 0.5 44.5-0.1 43.3-0.7 42.55-1.95L42.55-1.95 42.55 11 49 11 49 11.9 30.5 11.9 30.5 11 33.25 11 33.25-22.9 30.6-22.9 30.6-23.8ZM76.59-22.4L76.59-22.4Q74.75-22.4 73.34-20 71.95-17.6 71.95-14.3L71.95-14.3 71.95-0.9 75.5-0.9 75.5 0 59.9 0 59.9-0.9 62.65-0.9 62.65-22.9 59.9-22.9 59.9-23.8 71.95-23.8 71.95-19Q72.59-21.55 74.45-22.93 76.3-24.3 78.65-24.3 81-24.3 82.47-22.98 83.95-21.65 83.95-19.23 83.95-16.8 82.84-15.5 81.75-14.2 79.47-14.2 77.2-14.2 76.12-15.7 75.05-17.2 75.84-19.85L75.84-19.85 77.65-19.85Q78.9-22.4 76.59-22.4ZM100.54-9.85L100.54-9.85 100.54-14.1Q100.54-18.95 100.02-21.18 99.49-23.4 97.59-23.4L97.59-23.4Q96.49-23.4 95.82-22.78 95.14-22.15 94.84-20.7L94.84-20.7Q94.39-18.45 94.39-13.85L94.39-13.85 94.39-9.95Q94.39-4.5 94.72-3.4 95.04-2.3 95.39-1.6L95.39-1.6Q95.94-0.4 97.54-0.4L97.54-0.4Q99.49-0.4 100.09-2.65L100.09-2.65Q100.54-4.25 100.54-9.85ZM97.44 0.5Q91.19 0.5 87.99-2.7 84.79-5.9 84.79-11.88 84.79-17.85 88.22-21.08 91.64-24.3 97.84-24.3 104.04-24.3 107.09-21.33 110.14-18.35 110.14-12.25L110.14-12.25Q110.14 0.5 97.44 0.5L97.44 0.5ZM140.79-0.9L140.79 0 129.39 0 128.84-3.65Q128.04-1.65 126.47-0.58 124.89 0.5 121.79 0.5L121.79 0.5Q114.04 0.5 114.04-7.85L114.04-7.85 114.04-22.9 111.24-22.9 111.24-23.8 123.34-23.8 123.34-6.65Q123.34-3.65 123.77-2.7 124.19-1.75 125.47-1.75 126.74-1.75 127.74-3.3 128.74-4.85 128.74-7.6L128.74-7.6 128.74-22.9 126.44-22.9 126.44-23.8 138.04-23.8 138.04-0.9 140.79-0.9ZM144.29-7.15L144.29-7.15 144.29-22.9 141.54-22.9 141.54-23.8 144.29-23.8 144.29-30.25 153.59-32.55 153.59-23.8 160.09-23.8 160.09-22.9 153.59-22.9 153.59-6.05Q153.59-3.7 154.06-2.6 154.54-1.5 156.04-1.5 157.54-1.5 158.66-3 159.79-4.5 160.14-7.1L160.14-7.1 160.99-7Q160.59-3.55 158.79-1.53 156.99 0.5 152.84 0.5 148.69 0.5 146.49-1.15 144.29-2.8 144.29-7.15Z" opacity="1" transform="matrix(1,0,0,1,0,0)" fill="#000000" class="wordmark-text-0" data-fill-palette-color="primary" id="text-0"></path></svg></g></svg></g><g transform="matrix(1,0,0,1,0,90.47864156467296)"><svg viewBox="0 0 164.86895231999998 11.479225275279195" height="11.479225275279195" width="164.86895231999998"><g transform="matrix(1,0,0,1,0,0)"><svg width="164.86895231999998" viewBox="3 -39.65 727.11 50.5" height="11.479225275279195" data-palette-color="#000000"><path d="M10.9-34.55Q17.15-34.55 20.43-31.78 23.7-29 23.7-23.6L23.7-23.6Q23.7-17.85 20.48-15 17.25-12.15 11.35-12.15L11.35-12.15 9.35-12.15 9.35 0 3 0 3-34.55 10.9-34.55ZM11-16.9Q14.25-16.9 15.7-18.4 17.15-19.9 17.15-23.55L17.15-23.55Q17.15-26.85 15.7-28.35 14.25-29.85 11.05-29.85L11.05-29.85 9.35-29.85 9.35-16.9 11-16.9ZM32.9 0.75Q30.2 0.75 28.62-0.93 27.05-2.6 27.05-5.4L27.05-5.4 27.05-37.05 33.2-37.7 33.2-5.65Q33.2-5 33.5-4.6 33.8-4.2 34.4-4.2L34.4-4.2Q34.75-4.2 35.07-4.3 35.4-4.4 35.5-4.4L35.5-4.4 36.7-0.2Q35 0.75 32.9 0.75L32.9 0.75ZM56.65-6.4Q56.65-5.1 57-4.48 57.35-3.85 58.15-3.45L58.15-3.45 56.9 0.65Q54.84 0.4 53.62-0.45 52.4-1.3 51.8-3.05L51.8-3.05Q49.5 0.75 45.35 0.75L45.35 0.75Q42.05 0.75 40.1-1.48 38.15-3.7 38.15-7.4L38.15-7.4Q38.15-11.7 40.82-13.95 43.5-16.2 48.6-16.2L48.6-16.2 50.65-16.2 50.65-18.05Q50.65-20.55 49.77-21.58 48.9-22.6 46.95-22.6L46.95-22.6Q44.6-22.6 41.1-21.3L41.1-21.3 39.7-25.3Q41.7-26.2 43.85-26.68 46-27.15 47.95-27.15L47.95-27.15Q56.65-27.15 56.65-18.35L56.65-18.35 56.65-6.4ZM47-3.7Q49.4-3.7 50.65-7L50.65-7 50.65-12.55 49.2-12.55Q46.65-12.55 45.47-11.4 44.3-10.25 44.3-7.85L44.3-7.85Q44.3-5.8 45-4.75 45.7-3.7 47-3.7L47-3.7ZM74.79-27.15Q77.64-27.15 79.29-25.1 80.94-23.05 80.94-19.6L80.94-19.6 80.94 0 74.79 0 74.79-18.9Q74.79-20.8 74.27-21.63 73.74-22.45 72.74-22.45L72.74-22.45Q70.64-22.45 68.59-18.5L68.59-18.5 68.59 0 62.44 0 62.44-26.45 67.79-26.45 68.24-23Q69.59-25.1 71.12-26.13 72.64-27.15 74.79-27.15L74.79-27.15ZM97.64-5L99.79-1.2Q97.34 0.75 94.04 0.75L94.04 0.75Q90.59 0.75 88.79-1.23 86.99-3.2 86.99-6.6L86.99-6.6 86.99-22 83.89-22 83.89-26.45 86.99-26.45 86.99-32.3 93.14-33.05 93.14-26.45 98.14-26.45 97.54-22 93.14-22 93.14-6.6Q93.14-4.2 95.19-4.2L95.19-4.2Q95.84-4.2 96.34-4.38 96.84-4.55 97.64-5L97.64-5ZM102.34-26.45L108.49-26.45 108.49 0 102.34 0 102.34-26.45ZM105.39-39.65Q107.04-39.65 108.06-38.6 109.09-37.55 109.09-35.9L109.09-35.9Q109.09-34.3 108.06-33.25 107.04-32.2 105.39-32.2L105.39-32.2Q103.74-32.2 102.71-33.25 101.69-34.3 101.69-35.9L101.69-35.9Q101.69-37.55 102.71-38.6 103.74-39.65 105.39-39.65L105.39-39.65ZM126.54-27.15Q129.39-27.15 131.04-25.1 132.69-23.05 132.69-19.6L132.69-19.6 132.69 0 126.54 0 126.54-18.9Q126.54-20.8 126.01-21.63 125.49-22.45 124.49-22.45L124.49-22.45Q122.39-22.45 120.34-18.5L120.34-18.5 120.34 0 114.19 0 114.19-26.45 119.54-26.45 119.99-23Q121.34-25.1 122.86-26.13 124.39-27.15 126.54-27.15L126.54-27.15ZM156.18-29.85L157.73-25.1Q156.68-24.6 155.21-24.4 153.73-24.2 151.53-24.2L151.53-24.2Q153.63-23.2 154.66-21.53 155.68-19.85 155.68-17.4L155.68-17.4Q155.68-13.4 153.23-10.95 150.78-8.5 146.58-8.5L146.58-8.5Q145.33-8.5 144.03-8.9L144.03-8.9Q143.13-8.15 143.13-6.85L143.13-6.85Q143.13-5.85 143.68-5.35 144.23-4.85 145.73-4.85L145.73-4.85 148.53-4.85Q152.53-4.85 154.88-2.78 157.23-0.7 157.23 2.5L157.23 2.5Q157.23 6.3 154.31 8.58 151.38 10.85 145.98 10.85L145.98 10.85Q140.28 10.85 138.01 8.75 135.73 6.65 135.73 2.6L135.73 2.6 141.18 2.6Q141.18 4.75 142.18 5.65 143.18 6.55 146.03 6.55L146.03 6.55Q148.78 6.55 149.93 5.6 151.08 4.65 151.08 2.9L151.08 2.9Q151.08 1.2 150.13 0.4 149.18-0.4 147.18-0.4L147.18-0.4 145.28-0.4Q141.48-0.4 139.73-1.75 137.98-3.1 137.98-5.45L137.98-5.45Q137.98-6.8 138.71-8.03 139.43-9.25 140.68-10.2L140.68-10.2Q138.63-11.5 137.68-13.3 136.73-15.1 136.73-17.7L136.73-17.7Q136.73-22.05 139.33-24.58 141.93-27.1 146.33-27.1L146.33-27.1Q149.58-27.1 151.71-27.8 153.83-28.5 156.18-29.85L156.18-29.85ZM146.33-23Q144.58-23 143.68-21.75 142.78-20.5 142.78-17.8L142.78-17.8Q142.78-15.25 143.68-13.88 144.58-12.5 146.28-12.5L146.28-12.5Q148.03-12.5 148.88-13.73 149.73-14.95 149.73-17.85L149.73-17.85Q149.73-20.55 148.91-21.78 148.08-23 146.33-23L146.33-23ZM181.48-5L183.63-1.2Q181.18 0.75 177.88 0.75L177.88 0.75Q174.43 0.75 172.63-1.23 170.83-3.2 170.83-6.6L170.83-6.6 170.83-22 167.73-22 167.73-26.45 170.83-26.45 170.83-32.3 176.98-33.05 176.98-26.45 181.98-26.45 181.38-22 176.98-22 176.98-6.6Q176.98-4.2 179.03-4.2L179.03-4.2Q179.68-4.2 180.18-4.38 180.68-4.55 181.48-5L181.48-5ZM198.53-27.15Q201.38-27.15 203.03-25.1 204.68-23.05 204.68-19.6L204.68-19.6 204.68 0 198.53 0 198.53-18.9Q198.53-20.8 198-21.63 197.48-22.45 196.48-22.45L196.48-22.45Q194.38-22.45 192.33-18.5L192.33-18.5 192.33 0 186.18 0 186.18-37 192.33-37.65 192.33-23.3Q193.58-25.25 195.05-26.2 196.53-27.15 198.53-27.15L198.53-27.15ZM229.07-13.85Q229.07-13.4 228.92-11.3L228.92-11.3 215.27-11.3Q215.47-7.2 216.7-5.58 217.92-3.95 220.17-3.95L220.17-3.95Q221.72-3.95 222.97-4.48 224.22-5 225.67-6.15L225.67-6.15 228.22-2.65Q224.72 0.75 219.82 0.75L219.82 0.75Q214.62 0.75 211.85-2.85 209.07-6.45 209.07-13L209.07-13Q209.07-19.55 211.72-23.35 214.37-27.15 219.22-27.15L219.22-27.15Q223.87-27.15 226.47-23.78 229.07-20.4 229.07-13.85L229.07-13.85ZM223.07-15.3L223.07-15.65Q223.07-19.4 222.17-21.13 221.27-22.85 219.27-22.85L219.27-22.85Q217.42-22.85 216.45-21.18 215.47-19.5 215.27-15.3L215.27-15.3 223.07-15.3ZM250.57-27.15Q255.27-27.15 258.52-24.05L258.52-24.05 256.17-20.7Q254.77-21.7 253.52-22.2 252.27-22.7 250.97-22.7L250.97-22.7Q249.52-22.7 248.69-21.93 247.87-21.15 247.87-19.8L247.87-19.8Q247.87-18.45 248.79-17.63 249.72-16.8 252.52-15.7L252.52-15.7Q255.97-14.35 257.62-12.5 259.27-10.65 259.27-7.55L259.27-7.55Q259.27-3.7 256.57-1.48 253.87 0.75 249.72 0.75L249.72 0.75Q247.02 0.75 244.74-0.23 242.47-1.2 240.77-2.95L240.77-2.95 243.77-6.25Q246.57-3.8 249.47-3.8L249.47-3.8Q251.12-3.8 252.07-4.67 253.02-5.55 253.02-7.1L253.02-7.1Q253.02-8.25 252.62-8.97 252.22-9.7 251.22-10.33 250.22-10.95 248.22-11.7L248.22-11.7Q244.77-13.05 243.29-14.85 241.82-16.65 241.82-19.45L241.82-19.45Q241.82-22.8 244.19-24.98 246.57-27.15 250.57-27.15L250.57-27.15ZM281.97-13.85Q281.97-13.4 281.82-11.3L281.82-11.3 268.17-11.3Q268.37-7.2 269.59-5.58 270.82-3.95 273.07-3.95L273.07-3.95Q274.62-3.95 275.87-4.48 277.12-5 278.57-6.15L278.57-6.15 281.12-2.65Q277.62 0.75 272.72 0.75L272.72 0.75Q267.52 0.75 264.74-2.85 261.97-6.45 261.97-13L261.97-13Q261.97-19.55 264.62-23.35 267.27-27.15 272.12-27.15L272.12-27.15Q276.77-27.15 279.37-23.78 281.97-20.4 281.97-13.85L281.97-13.85ZM275.97-15.3L275.97-15.65Q275.97-19.4 275.07-21.13 274.17-22.85 272.17-22.85L272.17-22.85Q270.32-22.85 269.34-21.18 268.37-19.5 268.17-15.3L268.17-15.3 275.97-15.3ZM305.11-13.85Q305.11-13.4 304.96-11.3L304.96-11.3 291.31-11.3Q291.51-7.2 292.74-5.58 293.96-3.95 296.21-3.95L296.21-3.95Q297.76-3.95 299.01-4.48 300.26-5 301.71-6.15L301.71-6.15 304.26-2.65Q300.76 0.75 295.86 0.75L295.86 0.75Q290.66 0.75 287.89-2.85 285.11-6.45 285.11-13L285.11-13Q285.11-19.55 287.76-23.35 290.41-27.15 295.26-27.15L295.26-27.15Q299.91-27.15 302.51-23.78 305.11-20.4 305.11-13.85L305.11-13.85ZM299.11-15.3L299.11-15.65Q299.11-19.4 298.21-21.13 297.31-22.85 295.31-22.85L295.31-22.85Q293.46-22.85 292.49-21.18 291.51-19.5 291.31-15.3L291.31-15.3 299.11-15.3ZM322.36-37.7L328.51-37.05 328.51 0 323.06 0 322.76-3.05Q320.41 0.75 316.71 0.75L316.71 0.75Q312.61 0.75 310.44-2.93 308.26-6.6 308.26-13.2L308.26-13.2Q308.26-17.4 309.38-20.58 310.51-23.75 312.51-25.45 314.51-27.15 317.11-27.15L317.11-27.15Q320.31-27.15 322.36-24.5L322.36-24.5 322.36-37.7ZM318.46-3.9Q319.61-3.9 320.54-4.7 321.46-5.5 322.36-7L322.36-7 322.36-19.85Q320.76-22.55 318.71-22.55L318.71-22.55Q314.66-22.55 314.66-13.25L314.66-13.25Q314.66-8.2 315.66-6.05 316.66-3.9 318.46-3.9L318.46-3.9ZM355.21-5L357.36-1.2Q354.91 0.75 351.61 0.75L351.61 0.75Q348.16 0.75 346.36-1.23 344.56-3.2 344.56-6.6L344.56-6.6 344.56-22 341.46-22 341.46-26.45 344.56-26.45 344.56-32.3 350.71-33.05 350.71-26.45 355.71-26.45 355.11-22 350.71-22 350.71-6.6Q350.71-4.2 352.76-4.2L352.76-4.2Q353.41-4.2 353.91-4.38 354.41-4.55 355.21-5L355.21-5ZM369.3-27.15Q374.3-27.15 377.08-23.65 379.85-20.15 379.85-13.25L379.85-13.25Q379.85-6.65 377.05-2.95 374.25 0.75 369.3 0.75L369.3 0.75Q364.35 0.75 361.55-2.88 358.75-6.5 358.75-13.25L358.75-13.25Q358.75-19.95 361.55-23.55 364.35-27.15 369.3-27.15L369.3-27.15ZM369.3-22.5Q367.15-22.5 366.15-20.38 365.15-18.25 365.15-13.25L365.15-13.25Q365.15-8.2 366.15-6.08 367.15-3.95 369.3-3.95L369.3-3.95Q371.45-3.95 372.45-6.08 373.45-8.2 373.45-13.25L373.45-13.25Q373.45-18.3 372.45-20.4 371.45-22.5 369.3-22.5L369.3-22.5ZM403.95-33.05Q402.55-33.05 401.87-32.3 401.2-31.55 401.2-30L401.2-30 401.2-26.45 406.25-26.45 405.55-22 401.2-22 401.2 0 395.05 0 395.05-22 391.75-22 391.75-26.45 395.05-26.45 395.05-29.8Q395.05-33.4 397.15-35.55 399.25-37.7 403.15-37.7L403.15-37.7Q406.2-37.7 409.05-36.2L409.05-36.2 407.35-32.2Q405.6-33.05 403.95-33.05L403.95-33.05ZM409.05-26.45L415.2-26.45 415.2 0 409.05 0 409.05-26.45ZM412.1-39.65Q413.75-39.65 414.77-38.6 415.8-37.55 415.8-35.9L415.8-35.9Q415.8-34.3 414.77-33.25 413.75-32.2 412.1-32.2L412.1-32.2Q410.45-32.2 409.42-33.25 408.4-34.3 408.4-35.9L408.4-35.9Q408.4-37.55 409.42-38.6 410.45-39.65 412.1-39.65L412.1-39.65ZM433.24-27.15Q436.09-27.15 437.74-25.1 439.39-23.05 439.39-19.6L439.39-19.6 439.39 0 433.24 0 433.24-18.9Q433.24-20.8 432.72-21.63 432.19-22.45 431.19-22.45L431.19-22.45Q429.09-22.45 427.04-18.5L427.04-18.5 427.04 0 420.89 0 420.89-26.45 426.24-26.45 426.69-23Q428.04-25.1 429.57-26.13 431.09-27.15 433.24-27.15L433.24-27.15ZM461.84-6.4Q461.84-5.1 462.19-4.48 462.54-3.85 463.34-3.45L463.34-3.45 462.09 0.65Q460.04 0.4 458.82-0.45 457.59-1.3 456.99-3.05L456.99-3.05Q454.69 0.75 450.54 0.75L450.54 0.75Q447.24 0.75 445.29-1.48 443.34-3.7 443.34-7.4L443.34-7.4Q443.34-11.7 446.02-13.95 448.69-16.2 453.79-16.2L453.79-16.2 455.84-16.2 455.84-18.05Q455.84-20.55 454.97-21.58 454.09-22.6 452.14-22.6L452.14-22.6Q449.79-22.6 446.29-21.3L446.29-21.3 444.89-25.3Q446.89-26.2 449.04-26.68 451.19-27.15 453.14-27.15L453.14-27.15Q461.84-27.15 461.84-18.35L461.84-18.35 461.84-6.4ZM452.19-3.7Q454.59-3.7 455.84-7L455.84-7 455.84-12.55 454.39-12.55Q451.84-12.55 450.67-11.4 449.49-10.25 449.49-7.85L449.49-7.85Q449.49-5.8 450.19-4.75 450.89-3.7 452.19-3.7L452.19-3.7ZM479.99-27.15Q482.84-27.15 484.49-25.1 486.14-23.05 486.14-19.6L486.14-19.6 486.14 0 479.99 0 479.99-18.9Q479.99-20.8 479.46-21.63 478.94-22.45 477.94-22.45L477.94-22.45Q475.84-22.45 473.79-18.5L473.79-18.5 473.79 0 467.64 0 467.64-26.45 472.99-26.45 473.44-23Q474.79-25.1 476.31-26.13 477.84-27.15 479.99-27.15L479.99-27.15ZM501.19-27.15Q503.34-27.15 505.09-26.43 506.84-25.7 508.44-24.15L508.44-24.15 505.79-20.65Q504.69-21.55 503.71-21.98 502.74-22.4 501.59-22.4L501.59-22.4Q499.34-22.4 498.19-20.28 497.04-18.15 497.04-13.1L497.04-13.1Q497.04-8.2 498.21-6.2 499.39-4.2 501.59-4.2L501.59-4.2Q502.69-4.2 503.59-4.6 504.49-5 505.69-5.85L505.69-5.85 508.44-2.3Q505.24 0.75 501.29 0.75L501.29 0.75Q496.19 0.75 493.36-2.73 490.54-6.2 490.54-13L490.54-13Q490.54-17.4 491.84-20.6 493.14-23.8 495.56-25.48 497.99-27.15 501.19-27.15L501.19-27.15ZM511.48-26.45L517.63-26.45 517.63 0 511.48 0 511.48-26.45ZM514.53-39.65Q516.18-39.65 517.21-38.6 518.23-37.55 518.23-35.9L518.23-35.9Q518.23-34.3 517.21-33.25 516.18-32.2 514.53-32.2L514.53-32.2Q512.88-32.2 511.86-33.25 510.83-34.3 510.83-35.9L510.83-35.9Q510.83-37.55 511.86-38.6 512.88-39.65 514.53-39.65L514.53-39.65ZM540.23-6.4Q540.23-5.1 540.58-4.48 540.93-3.85 541.73-3.45L541.73-3.45 540.48 0.65Q538.43 0.4 537.21-0.45 535.98-1.3 535.38-3.05L535.38-3.05Q533.08 0.75 528.93 0.75L528.93 0.75Q525.63 0.75 523.68-1.48 521.73-3.7 521.73-7.4L521.73-7.4Q521.73-11.7 524.41-13.95 527.08-16.2 532.18-16.2L532.18-16.2 534.23-16.2 534.23-18.05Q534.23-20.55 533.36-21.58 532.48-22.6 530.53-22.6L530.53-22.6Q528.18-22.6 524.68-21.3L524.68-21.3 523.28-25.3Q525.28-26.2 527.43-26.68 529.58-27.15 531.53-27.15L531.53-27.15Q540.23-27.15 540.23-18.35L540.23-18.35 540.23-6.4ZM530.58-3.7Q532.98-3.7 534.23-7L534.23-7 534.23-12.55 532.78-12.55Q530.23-12.55 529.06-11.4 527.88-10.25 527.88-7.85L527.88-7.85Q527.88-5.8 528.58-4.75 529.28-3.7 530.58-3.7L530.58-3.7ZM551.63 0.75Q548.93 0.75 547.35-0.93 545.78-2.6 545.78-5.4L545.78-5.4 545.78-37.05 551.93-37.7 551.93-5.65Q551.93-5 552.23-4.6 552.53-4.2 553.13-4.2L553.13-4.2Q553.48-4.2 553.8-4.3 554.13-4.4 554.23-4.4L554.23-4.4 555.43-0.2Q553.73 0.75 551.63 0.75L551.63 0.75ZM574.82 0L568.47 0 568.47-34.55 585.17-34.55 584.47-29.8 574.82-29.8 574.82-19.25 583.22-19.25 583.22-14.5 574.82-14.5 574.82 0ZM600.12-27.1Q601.27-27.1 602.17-26.75L602.17-26.75 601.17-20.85Q600.17-21.1 599.32-21.1L599.32-21.1Q597.42-21.1 596.32-19.45 595.22-17.8 594.62-14.55L594.62-14.55 594.62 0 588.47 0 588.47-26.45 593.82-26.45 594.27-21.85Q596.12-27.1 600.12-27.1L600.12-27.1ZM623.87-13.85Q623.87-13.4 623.72-11.3L623.72-11.3 610.07-11.3Q610.27-7.2 611.49-5.58 612.72-3.95 614.97-3.95L614.97-3.95Q616.52-3.95 617.77-4.48 619.02-5 620.47-6.15L620.47-6.15 623.02-2.65Q619.52 0.75 614.62 0.75L614.62 0.75Q609.42 0.75 606.64-2.85 603.87-6.45 603.87-13L603.87-13Q603.87-19.55 606.52-23.35 609.17-27.15 614.02-27.15L614.02-27.15Q618.67-27.15 621.27-23.78 623.87-20.4 623.87-13.85L623.87-13.85ZM617.87-15.3L617.87-15.65Q617.87-19.4 616.97-21.13 616.07-22.85 614.07-22.85L614.07-22.85Q612.22-22.85 611.24-21.18 610.27-19.5 610.07-15.3L610.07-15.3 617.87-15.3ZM647.01-13.85Q647.01-13.4 646.86-11.3L646.86-11.3 633.21-11.3Q633.41-7.2 634.64-5.58 635.86-3.95 638.11-3.95L638.11-3.95Q639.66-3.95 640.91-4.48 642.16-5 643.61-6.15L643.61-6.15 646.16-2.65Q642.66 0.75 637.76 0.75L637.76 0.75Q632.56 0.75 629.79-2.85 627.01-6.45 627.01-13L627.01-13Q627.01-19.55 629.66-23.35 632.31-27.15 637.16-27.15L637.16-27.15Q641.81-27.15 644.41-23.78 647.01-20.4 647.01-13.85L647.01-13.85ZM641.01-15.3L641.01-15.65Q641.01-19.4 640.11-21.13 639.21-22.85 637.21-22.85L637.21-22.85Q635.36-22.85 634.39-21.18 633.41-19.5 633.21-15.3L633.21-15.3 641.01-15.3ZM664.26-37.7L670.41-37.05 670.41 0 664.96 0 664.66-3.05Q662.31 0.75 658.61 0.75L658.61 0.75Q654.51 0.75 652.34-2.93 650.16-6.6 650.16-13.2L650.16-13.2Q650.16-17.4 651.29-20.58 652.41-23.75 654.41-25.45 656.41-27.15 659.01-27.15L659.01-27.15Q662.21-27.15 664.26-24.5L664.26-24.5 664.26-37.7ZM660.36-3.9Q661.51-3.9 662.44-4.7 663.36-5.5 664.26-7L664.26-7 664.26-19.85Q662.66-22.55 660.61-22.55L660.61-22.55Q656.56-22.55 656.56-13.25L656.56-13.25Q656.56-8.2 657.56-6.05 658.56-3.9 660.36-3.9L660.36-3.9ZM685.51-27.15Q690.51-27.15 693.28-23.65 696.06-20.15 696.06-13.25L696.06-13.25Q696.06-6.65 693.26-2.95 690.46 0.75 685.51 0.75L685.51 0.75Q680.56 0.75 677.76-2.88 674.96-6.5 674.96-13.25L674.96-13.25Q674.96-19.95 677.76-23.55 680.56-27.15 685.51-27.15L685.51-27.15ZM685.51-22.5Q683.36-22.5 682.36-20.38 681.36-18.25 681.36-13.25L681.36-13.25Q681.36-8.2 682.36-6.08 683.36-3.95 685.51-3.95L685.51-3.95Q687.66-3.95 688.66-6.08 689.66-8.2 689.66-13.25L689.66-13.25Q689.66-18.3 688.66-20.4 687.66-22.5 685.51-22.5L685.51-22.5ZM724.26-27.15Q726.91-27.15 728.51-25.1 730.11-23.05 730.11-19.6L730.11-19.6 730.11 0 724.06 0 724.06-18.95Q724.06-20.85 723.56-21.68 723.06-22.5 722.11-22.5L722.11-22.5Q720.16-22.5 718.36-18.8L718.36-18.8 718.36 0 712.36 0 712.36-18.95Q712.36-22.5 710.46-22.5L710.46-22.5Q708.41-22.5 706.66-18.8L706.66-18.8 706.66 0 700.61 0 700.61-26.45 705.96-26.45 706.36-23.05Q708.96-27.15 712.61-27.15L712.61-27.15Q714.46-27.15 715.81-26 717.16-24.85 717.86-22.75L717.86-22.75Q720.51-27.15 724.26-27.15L724.26-27.15Z" opacity="1" transform="matrix(1,0,0,1,0,0)" fill="#000000" class="slogan-text-1" data-fill-palette-color="secondary" id="text-1"></path></svg></g></svg></g></svg></g></svg></g></svg></g></svg></g><g><path d="M0 123.6c0-68.262 55.338-123.6 123.6-123.6 46.644 0 87.253 25.837 108.297 63.981l-3.786 0c-20.724-36.25-59.764-60.68-104.511-60.68-66.44 0-120.299 53.86-120.299 120.299 0 66.44 53.86 120.299 120.299 120.299 44.746 0 83.787-24.43 104.511-60.68l3.786 0c-21.043 38.143-61.653 63.981-108.297 63.981-68.262 0-123.6-55.338-123.6-123.6z" fill="#000000" stroke="transparent" data-fill-palette-color="tertiary"></path></g></svg></g><defs></defs></svg><rect width="395.52" height="247.2" fill="none" stroke="none" visibility="hidden"></rect></g></svg></g></svg>